<?xml version="1.0" standalone="no"?>
<svg viewBox="0 0 200 200" xmlns="http://www.w3.org/2000/svg">
  <path fill="#FF0066" d="M41.2,-71.8C55.1,-63.3,69.1,-55.7,76.6,-43.8C84,-32,84.9,-16,83.5,-0.8C82.2,14.4,78.5,28.8,72,42.3C65.5,55.8,56.1,68.4,43.7,74.9C31.2,81.4,15.6,81.8,1.2,79.8C-13.3,77.8,-26.5,73.4,-39.6,67.2C-52.6,61,-65.4,53.1,-75.1,41.6C-84.7,30.1,-91,15.1,-91,0C-90.9,-15,-84.4,-30,-75.1,-41.9C-65.7,-53.9,-53.6,-62.8,-40.6,-71.8C-27.6,-80.7,-13.8,-89.7,-0.1,-89.6C13.7,-89.5,27.3,-80.2,41.2,-71.8Z" transform="translate(100 100)" />
</svg>
